<svg width="32" height="32" viewBox="0 0 32 32" xmlns="http://www.w3.org/2000/svg">
  <title>Bramha Interiors</title>
  <!-- Saffron background — high contrast on any tab bar -->
  <circle cx="16" cy="16" r="16" fill="#FF7A00"/>
  <!-- Bold cream lotus, simplified for tiny-size legibility -->
  <path d="M16 27 C16 27 5 21 5 13 C5 8 9 5 16 5 C23 5 27 8 27 13 C27 21 16 27 16 27 Z"
        fill="none" stroke="#FAF7F0" stroke-width="2" stroke-linejoin="round"/>
  <path d="M16 27 C16 27 9 22 9 16 C9 12 12 10 16 10 C20 10 23 12 23 16 C23 22 16 27 16 27 Z"
        fill="#FAF7F0"/>
  <!-- Gold centre dot -->
  <circle cx="16" cy="16" r="2.5" fill="#D4A017"/>
</svg>
